ply
format ascii 1.0
element vertex 325
property float x
property float y
property float z
element face 420
property list uchar int vertex_indices
end_header
278.139 40.5448 101.473
266.48 57.0743 98.4011
275.719 34.2884 100.469
280.168 15.9521 101.363
245.587 73.6313 92.5164
257.914 31.0596 95.152
269.108 -9.90972 97.3159
226.72 84.984 87.45
240.311 24.8596 90.3431
253.562 -36.6547 92.7537
209.633 92.5582 82.6913
223.731 18.7413 85.6998
237.114 -59.9539 88.4182
192.975 97.5572 78.09
207.059 13.5159 81.1788
220.311 -76.8061 84.264
177.313 101.32 73.6367
191.503 10.0905 76.6723
204.982 -85.3987 80.0052
159.608 104.28 68.9109
174.897 7.87257 72.1682
188.798 -90.112 75.5347
143.76 105.538 64.3947
159.501 6.6406 67.5934
172.737 -92.8456 70.7767
127.947 105.379 59.8469
144.389 5.86765 63.0048
156.43 -94.0061 65.8599
113.034 103.819 55.4031
129.846 5.42669 58.4393
140.762 -92.5661 60.7865
102.637 101.233 52.0943
116.184 5.20917 53.9587
125.907 -89.8816 55.8235
95.3269 97.7069 49.2104
104.293 5.09884 49.4991
112.476 -86.0806 50.7859
86.6949 92.3817 45.5509
92.7927 4.96511 44.9524
99.3509 -80.9825 45.6619
77.0575 85.3064 41.252
81.3267 4.749 40.2022
86.4287 -74.497 40.4424
66.6717 76.5227 36.425
69.7418 4.44303 35.2083
73.6253 -66.5542 35.1183
55.7513 66.0673 31.1631
57.9852 4.06267 29.967
60.8709 -57.0981 29.6814
45.2734 54.9361 25.565
46.9786 3.65426 24.5213
49.1195 -47.0079 24.1666
33.6578 41.3151 19.6077
34.8821 3.18181 18.8274
36.3421 -34.5672 18.485
22.8148 27.3242 13.4965
23.6032 2.73901 13.0043
24.4872 -21.6477 12.7443
11.9501 11.9988 7.21372
12.2292 2.31959 7.03754
12.5361 -7.3287 6.89722
2.47436 -3.02575 1.1154
1.7005 1.99427 1.07429
0.810329 7.08754 1.1416
0.00109971 0.00110626 0.00112724
126.43 -253.045 102.086
134.203 -237.868 98.569
121.427 -252.033 101.07
110.121 -260.292 102.062
140.652 -214.361 92.521
112.833 -236.593 95.5307
82.4086 -260.413 98.693
145.805 -193.181 87.4389
102.044 -222.332 90.4908
56.6333 -254.76 94.3475
146.7 -175.903 82.6533
92.0725 -208.081 85.2549
35.4577 -241.852 88.2385
144.839 -160.346 78.0177
82.3785 -192.914 79.7867
17.3038 -223.38 80.7384
140.717 -147.438 73.461
73.7811 -178.59 74.3445
2.6041 -207.681 74.0558
136.982 -132.399 68.8623
65.3811 -163.566 69.0664
-10.7844 -192.015 67.8163
134.789 -116.642 64.3922
58.4766 -149.894 64.05
-21.116 -178.008 62.065
131.775 -103.353 60.449
52.4199 -136.88 59.3217
-29.3813 -164.446 56.6607
128.105 -95.2368 57.5892
47.0327 -124.809 54.8885
-35.6146 -151.066 51.5299
124.381 -89.788 55.3664
42.1773 -113.519 50.6649
-39.8493 -137.645 46.6088
118.778 -83.272 52.0872
37.9579 -103.272 46.4118
-42.016 -125.075 41.8444
111.162 -75.4856 48.0307
33.8203 -92.8354 42.0314
-42.5044 -112.341 37.2115
101.667 -66.7856 43.3372
29.6866 -82.0374 37.468
-41.3377 -99.3107 32.6708
90.4045 -57.4654 38.1223
25.5347 -70.8248 32.7089
-38.5347 -85.8736 28.1893
77.4691 -47.772 32.4834
21.3685 -59.2008 27.7617
-34.1101 -71.9384 23.7395
64.0771 -38.5521 26.542
17.5174 -48.1162 22.6478
-28.5967 -58.6197 19.2684
48.0692 -28.5115 20.2341
13.3569 -35.7595 17.3718
-21.087 -43.5756 14.8294
31.9677 -19.3076 13.8097
9.54933 -24.0709 11.9908
-12.7364 -29.121 10.3384
14.6375 -10.3015 7.23063
5.79258 -12.1502 6.51143
-3.0289 -14.0581 5.82181
-2.15496 -3.60761 1.13017
2.41094 -1.05326 1.01489
6.99441 1.49367 0.946829
0.00084734 -0.00165391 0.000857115
-206.579 -196.831 103.274
-178.541 -207.586 99.0503
-208.103 -189.452 101.974
-222.274 -174.282 102.097
-152.369 -206.354 92.5289
-191.04 -178.084 95.5945
-224.927 -150.139 97.6056
-133.604 -201.456 87.263
-179.108 -165.161 90.4513
-223.032 -128.662 93.01
-118.217 -195.813 82.525
-168.917 -153.254 85.6824
-219.184 -110.024 88.5365
-104.776 -188.243 77.8078
-158.858 -141.649 81.0847
-213.58 -93.1812 84.1563
-92.944 -181.081 73.3796
-149.303 -131.265 76.5463
-206.344 -81.0852 79.9126
-81.2353 -173.144 69.0994
-138.761 -120.557 72.054
-197.457 -69.1704 75.5694
-70.1864 -164.189 64.4514
-128.604 -110.603 67.4617
-187.692 -57.2274 70.8213
-59.3423 -154.223 59.6337
-118.15 -100.623 62.7849
-176.693 -45.9068 65.8689
-49.2684 -143.849 54.8701
-107.537 -90.8195 58.0784
-165.049 -35.9262 60.9468
-40.5524 -133.016 50.2676
-96.8945 -81.3727 53.4007
-152.436 -26.2962 55.9101
-33.0339 -123.651 46.1924
-87.04 -73.1375 48.7776
-139.646 -17.7587 50.8074
-27.4957 -117.149 43.3925
-77.2852 -65.7313 44.2509
-126.573 -12.2814 45.8738
-22.2863 -108.182 39.7544
-67.6012 -59.041 39.6942
-112.644 -11.8037 40.8563
-17.5425 -96.9906 35.4307
-57.8977 -52.3999 34.9434
-98.4772 -11.1528 35.7989
-13.3753 -83.7623 30.5473
-48.0874 -45.2576 29.9192
-83.1397 -10.0673 30.476
-10.0708 -69.8111 25.2013
-38.8758 -37.9855 24.6141
-67.9591 -8.79843 24.9433
-7.17589 -52.9208 19.4302
-28.6947 -29.3479 18.9933
-50.3824 -7.45726 19.1389
-5.18916 -35.8542 13.4357
-19.1261 -20.7402 13.1727
-33.1388 -6.48301 13.2123
-3.9145 -17.4514 7.22889
-9.39894 -11.6313 7.15343
-14.9043 -5.9418 7.12578
-3.84775 1.03531 1.11808
-0.331997 -2.9772 1.09935
3.25529 -7.23839 1.18909
-0.000817537 -0.00564814 0.00171542
-245.001 133.129 100.7
-244.994 115.697 97.8169
-240.107 135.864 99.7309
-235.074 150.395 100.753
-237.634 93.445 92.1311
-226.826 127.523 94.7667
-218.38 158.845 97.516
-229.567 75.7973 87.3226
-212.322 121.283 90.2152
-196.159 166.674 93.0658
-221.07 61.2359 82.7831
-198.101 115.883 85.6564
-175.636 170.92 88.4935
-210.532 49.3672 78.0918
-183.677 110.3 81.1295
-156.834 172.343 84.1578
-200.112 39.3849 73.5265
-170.195 104.769 76.5963
-140.339 171.896 79.9995
-188.633 28.9769 68.9575
-155.801 98.3533 72.0673
-122.978 169.266 75.5742
-177.287 20.1299 64.405
-142.399 91.889 67.4406
-107.132 164.507 70.86
-165.163 12.6831 59.7779
-129.078 85.0462 62.7383
-91.1772 157.999 65.8403
-152.376 6.13431 55.0343
-116.015 77.9189 57.9833
-76.8566 150.324 60.9198
-138.911 0.513596 50.2173
-103.434 70.5324 53.2091
-65.1254 140.765 55.9632
-125.927 -4.02915 45.473
-92.2826 63.4734 48.4339
-55.2349 130.843 50.9269
-113.857 -7.34186 41.1668
-81.7382 56.2851 43.7118
-46.2976 119.88 45.808
-104.483 -9.70474 37.8617
-71.8697 48.9861 39.0655
-38.2877 107.782 40.6035
-95.684 -11.8344 34.8107
-62.4771 41.5519 34.422
-31.1649 94.4735 35.3032
-83.7914 -12.4251 30.7142
-53.0521 34.0305 29.6031
-24.8776 79.8963 29.8916
-70.3366 -11.6495 25.7244
-43.9468 27.0857 24.4773
-19.7562 65.317 24.389
-53.5264 -9.39852 20.0353
-33.498 19.5836 18.99
-14.9086 48.2345 18.701
-36.3681 -6.09094 13.9236
-23.3464 12.6704 13.2304
-11.0551 31.263 12.93
-17.8988 -1.61998 7.46977
-12.7719 5.7506 7.21385
-7.7771 13.0978 7.02437
-0.321373 3.98942 1.14857
-2.77397 -0.623439 1.11224
-5.28625 -5.29343 1.17455
-0.00512886 -0.00118369 0.00240695
31.1679 288.015 104.593
16.8902 284.342 102.797
36.29 282.529 102.971
54.139 277.379 102.053
-1.27204 270.448 97.62
34.748 264.868 97.3211
71.2294 258.583 96.8077
-17.6499 254.742 92.3537
32.8468 247.763 92.2461
82.8758 242.106 92.4306
-30.4592 237.888 86.6146
30.5396 231.864 87.2633
89.8174 227.58 88.2923
-40.9611 217.338 79.8933
28.1302 215.647 82.2366
94.3557 213.022 84.1398
-47.3821 199.113 73.777
26.0962 200.468 77.246
97.1041 199.209 79.8931
-51.4226 183.158 68.7087
24.2464 184.626 72.4072
97.7216 184.786 75.4978
-53.0387 169.134 63.9731
22.755 170.207 67.6969
97.4207 170.135 70.7496
-55.2629 155.54 59.5816
21.4005 156.006 63.1029
96.7578 154.701 65.8342
-57.372 144.924 56.2508
20.1186 142.064 58.6384
95.5228 138.538 60.7352
-58.0622 136.417 53.5248
18.9981 128.344 54.2697
94.9267 121.671 55.8017
-57.3421 126.781 49.9928
18.0901 115.57 49.8203
93.9354 105.353 50.8871
-55.3274 115.598 45.8731
17.0818 102.655 45.2005
90.4148 90.4954 45.8339
-52.0096 103.144 41.2632
15.7846 89.6477 40.3564
84.5455 76.801 40.6454
-47.3814 89.6486 36.2433
14.1308 76.5716 35.2767
76.4658 64.0355 35.3228
-41.4338 75.299 30.881
12.1093 63.437 29.9698
66.2837 52.0101 29.8667
-34.7929 61.3622 25.2627
9.92426 51.2582 24.4856
55.076 41.4953 24.32
-26.311 45.6698 19.3432
7.22732 38.0198 18.7739
41.0142 30.5969 18.595
-17.2999 30.7312 13.3065
4.46697 25.7509 12.9536
26.3488 20.9002 12.8096
-7.13113 15.4438 7.12518
1.46661 13.4476 7.00528
10.0885 11.4762 6.91669
3.7006 1.77173 1.10521
-1.48901 2.16811 1.07068
-6.71691 2.63201 1.14495
0.000988007 0.000319719 0.000969291
3 0 1 2
3 0 2 3
3 1 4 5
3 1 5 2
3 2 5 3
3 3 5 6
3 4 7 8
3 4 8 5
3 5 8 6
3 6 8 9
3 7 10 11
3 7 11 8
3 8 11 9
3 9 11 12
3 10 13 14
3 10 14 11
3 11 14 12
3 12 14 15
3 13 16 17
3 13 17 14
3 14 17 15
3 15 17 18
3 16 19 20
3 16 20 17
3 17 20 18
3 18 20 21
3 19 22 23
3 19 23 20
3 20 23 21
3 21 23 24
3 22 25 26
3 22 26 23
3 23 26 24
3 24 26 27
3 25 28 29
3 25 29 26
3 26 29 27
3 27 29 30
3 28 31 32
3 28 32 29
3 29 32 30
3 30 32 33
3 31 34 35
3 31 35 32
3 32 35 33
3 33 35 36
3 34 37 38
3 34 38 35
3 35 38 36
3 36 38 39
3 37 40 41
3 37 41 38
3 38 41 39
3 39 41 42
3 40 43 44
3 40 44 41
3 41 44 42
3 42 44 45
3 43 46 47
3 43 47 44
3 44 47 45
3 45 47 48
3 46 49 50
3 46 50 47
3 47 50 48
3 48 50 51
3 49 52 53
3 49 53 50
3 50 53 51
3 51 53 54
3 52 55 56
3 52 56 53
3 53 56 54
3 54 56 57
3 55 58 59
3 55 59 56
3 56 59 57
3 57 59 60
3 58 61 62
3 58 62 59
3 59 62 60
3 60 62 63
3 64 62 61
3 64 63 62
3 65 66 67
3 65 67 68
3 66 69 70
3 66 70 67
3 67 70 68
3 68 70 71
3 69 72 73
3 69 73 70
3 70 73 71
3 71 73 74
3 72 75 76
3 72 76 73
3 73 76 74
3 74 76 77
3 75 78 79
3 75 79 76
3 76 79 77
3 77 79 80
3 78 81 82
3 78 82 79
3 79 82 80
3 80 82 83
3 81 84 85
3 81 85 82
3 82 85 83
3 83 85 86
3 84 87 88
3 84 88 85
3 85 88 86
3 86 88 89
3 87 90 91
3 87 91 88
3 88 91 89
3 89 91 92
3 90 93 94
3 90 94 91
3 91 94 92
3 92 94 95
3 93 96 97
3 93 97 94
3 94 97 95
3 95 97 98
3 96 99 100
3 96 100 97
3 97 100 98
3 98 100 101
3 99 102 103
3 99 103 100
3 100 103 101
3 101 103 104
3 102 105 106
3 102 106 103
3 103 106 104
3 104 106 107
3 105 108 109
3 105 109 106
3 106 109 107
3 107 109 110
3 108 111 112
3 108 112 109
3 109 112 110
3 110 112 113
3 111 114 115
3 111 115 112
3 112 115 113
3 113 115 116
3 114 117 118
3 114 118 115
3 115 118 116
3 116 118 119
3 117 120 121
3 117 121 118
3 118 121 119
3 119 121 122
3 120 123 124
3 120 124 121
3 121 124 122
3 122 124 125
3 123 126 127
3 123 127 124
3 124 127 125
3 125 127 128
3 129 127 126
3 129 128 127
3 130 131 132
3 130 132 133
3 131 134 135
3 131 135 132
3 132 135 133
3 133 135 136
3 134 137 138
3 134 138 135
3 135 138 136
3 136 138 139
3 137 140 141
3 137 141 138
3 138 141 139
3 139 141 142
3 140 143 144
3 140 144 141
3 141 144 142
3 142 144 145
3 143 146 147
3 143 147 144
3 144 147 145
3 145 147 148
3 146 149 150
3 146 150 147
3 147 150 148
3 148 150 151
3 149 152 153
3 149 153 150
3 150 153 151
3 151 153 154
3 152 155 156
3 152 156 153
3 153 156 154
3 154 156 157
3 155 158 159
3 155 159 156
3 156 159 157
3 157 159 160
3 158 161 162
3 158 162 159
3 159 162 160
3 160 162 163
3 161 164 165
3 161 165 162
3 162 165 163
3 163 165 166
3 164 167 168
3 164 168 165
3 165 168 166
3 166 168 169
3 167 170 171
3 167 171 168
3 168 171 169
3 169 171 172
3 170 173 174
3 170 174 171
3 171 174 172
3 172 174 175
3 173 176 177
3 173 177 174
3 174 177 175
3 175 177 178
3 176 179 180
3 176 180 177
3 177 180 178
3 178 180 181
3 179 182 183
3 179 183 180
3 180 183 181
3 181 183 184
3 182 185 186
3 182 186 183
3 183 186 184
3 184 186 187
3 185 188 189
3 185 189 186
3 186 189 187
3 187 189 190
3 188 191 192
3 188 192 189
3 189 192 190
3 190 192 193
3 194 192 191
3 194 193 192
3 195 196 197
3 195 197 198
3 196 199 200
3 196 200 197
3 197 200 198
3 198 200 201
3 199 202 203
3 199 203 200
3 200 203 201
3 201 203 204
3 202 205 206
3 202 206 203
3 203 206 204
3 204 206 207
3 205 208 209
3 205 209 206
3 206 209 207
3 207 209 210
3 208 211 212
3 208 212 209
3 209 212 210
3 210 212 213
3 211 214 215
3 211 215 212
3 212 215 213
3 213 215 216
3 214 217 218
3 214 218 215
3 215 218 216
3 216 218 219
3 217 220 221
3 217 221 218
3 218 221 219
3 219 221 222
3 220 223 224
3 220 224 221
3 221 224 222
3 222 224 225
3 223 226 227
3 223 227 224
3 224 227 225
3 225 227 228
3 226 229 230
3 226 230 227
3 227 230 228
3 228 230 231
3 229 232 233
3 229 233 230
3 230 233 231
3 231 233 234
3 232 235 236
3 232 236 233
3 233 236 234
3 234 236 237
3 235 238 239
3 235 239 236
3 236 239 237
3 237 239 240
3 238 241 242
3 238 242 239
3 239 242 240
3 240 242 243
3 241 244 245
3 241 245 242
3 242 245 243
3 243 245 246
3 244 247 248
3 244 248 245
3 245 248 246
3 246 248 249
3 247 250 251
3 247 251 248
3 248 251 249
3 249 251 252
3 250 253 254
3 250 254 251
3 251 254 252
3 252 254 255
3 253 256 257
3 253 257 254
3 254 257 255
3 255 257 258
3 259 257 256
3 259 258 257
3 260 261 262
3 260 262 263
3 261 264 265
3 261 265 262
3 262 265 263
3 263 265 266
3 264 267 268
3 264 268 265
3 265 268 266
3 266 268 269
3 267 270 271
3 267 271 268
3 268 271 269
3 269 271 272
3 270 273 274
3 270 274 271
3 271 274 272
3 272 274 275
3 273 276 277
3 273 277 274
3 274 277 275
3 275 277 278
3 276 279 280
3 276 280 277
3 277 280 278
3 278 280 281
3 279 282 283
3 279 283 280
3 280 283 281
3 281 283 284
3 282 285 286
3 282 286 283
3 283 286 284
3 284 286 287
3 285 288 289
3 285 289 286
3 286 289 287
3 287 289 290
3 288 291 292
3 288 292 289
3 289 292 290
3 290 292 293
3 291 294 295
3 291 295 292
3 292 295 293
3 293 295 296
3 294 297 298
3 294 298 295
3 295 298 296
3 296 298 299
3 297 300 301
3 297 301 298
3 298 301 299
3 299 301 302
3 300 303 304
3 300 304 301
3 301 304 302
3 302 304 305
3 303 306 307
3 303 307 304
3 304 307 305
3 305 307 308
3 306 309 310
3 306 310 307
3 307 310 308
3 308 310 311
3 309 312 313
3 309 313 310
3 310 313 311
3 311 313 314
3 312 315 316
3 312 316 313
3 313 316 314
3 314 316 317
3 315 318 319
3 315 319 316
3 316 319 317
3 317 319 320
3 318 321 322
3 318 322 319
3 319 322 320
3 320 322 323
3 324 322 321
3 324 323 322
