ply
format ascii 1.0
element vertex 355
property float x
property float y
property float z
element face 460
property list uchar int vertex_indices
end_header
278.422 40.348 114.471
268.801 54.2256 111.499
276.847 34.3184 113.563
280.816 18.1132 114.451
249.262 70.4092 105.405
260.399 31.6946 108.163
270.814 -6.18847 110.346
232.632 81.3561 100.31
245.076 26.6571 103.274
257.954 -29.0722 105.825
217.198 89.8174 95.5064
230.657 21.5973 98.5484
243.763 -50.2219 101.31
200.877 96.9046 90.7796
214.944 16.696 93.9435
227.562 -69.3047 96.8664
186.106 101.03 86.1116
200.425 13.2699 89.3757
213.6 -78.6384 92.5124
172.275 103.418 81.7253
186.094 11.0308 84.8497
200.096 -84.2409 88.2495
157.102 105.914 77.174
171.792 9.64613 80.3107
186.071 -87.787 83.7441
143.143 107.384 72.7358
158.544 8.87972 75.6925
171.902 -90.0144 78.8423
128.108 107.533 68.1504
144.372 8.35151 71.0568
157.227 -90.5497 73.878
114.717 106.408 63.5882
131.667 8.03991 66.3857
143.471 -89.9393 68.7892
103.752 104.151 59.8738
118.594 7.79737 61.7755
129.415 -87.828 63.624
95.938 101.515 56.7585
107.215 7.63949 57.173
116.78 -84.8021 58.428
88.2133 97.6281 52.8874
97.2067 7.46226 52.4855
105.527 -81.1402 53.1958
79.2561 91.8367 48.5469
86.4718 7.14012 47.6677
93.523 -76.1297 47.8877
70.0005 84.5351 43.7892
75.8083 6.69467 42.6682
81.6791 -69.93 42.5213
61.2913 76.5236 38.6738
66.0572 6.179 37.4987
70.9517 -63.1816 37.1283
52.3692 67.2706 33.263
56.2836 5.56789 32.17
60.3156 -55.404 31.6835
42.5296 55.8374 27.5851
45.5664 4.84089 26.6676
48.7355 -45.6796 26.1428
34.2373 45.2638 21.8712
36.6284 4.1938 21.1331
39.0878 -36.5558 20.6633
25.0442 32.5774 15.9769
26.7301 3.48575 15.4694
28.4317 -25.4327 15.1105
15.8508 18.827 10.0281
16.792 2.8088 9.7441
17.7058 -13.123 9.53937
7.48869 5.44718 4.17048
7.73018 2.24581 4.05164
7.87167 -0.860922 4.02796
-0.000100613 0.00112486 0.00095892
124.996 -253.614 115.032
131.405 -241.112 111.621
120.265 -253.124 114.022
109.993 -259.74 114.717
138.811 -218.72 105.422
113.032 -238.433 108.352
86.8405 -258.698 111.229
143.008 -200.22 100.175
104.346 -226.093 103.383
63.9861 -255.798 107.441
145.886 -184.495 95.5809
96.1321 -214.105 98.3214
44.8352 -246.846 101.979
145.983 -169.574 91.0625
87.5653 -200.143 92.9822
27.3677 -232.58 95.3108
143.908 -156.58 86.4651
79.9363 -186.459 87.4788
12.9745 -215.708 87.8417
139.518 -144.395 81.6459
72.8137 -172.514 81.9691
1.31154 -199.068 80.7921
136.262 -131.162 77.0385
66.4953 -158.668 76.6452
-7.92714 -182.864 74.2069
134.728 -117.487 72.6846
61.5255 -146.198 71.632
-14.4675 -168.602 68.2535
132.546 -104.551 68.7719
56.8797 -133.478 66.9937
-19.6872 -154.327 62.8789
128.891 -95.1545 65.0706
52.9929 -122.814 62.7035
-22.9782 -142.562 58.2461
124.449 -88.2916 62.0834
48.9687 -112.558 58.8432
-25.1636 -131.842 54.5513
118.933 -81.4033 58.4394
45.2722 -104.085 55.1598
-26.1045 -124.43 51.7992
112.68 -74.5189 54.215
41.7143 -96.8715 51.471
-27.1122 -120.11 49.9847
104.551 -66.5209 49.6026
37.5592 -89.0206 47.7722
-28.0022 -115.323 48.2852
95.1308 -58.3057 44.6359
33.2121 -80.6683 43.7376
-27.7079 -107.597 45.369
85.3858 -50.5834 39.3612
29.1193 -72.2441 39.1948
-26.4213 -98.1363 41.2962
74.5836 -42.7001 33.8088
24.9583 -62.9157 34.183
-24.1512 -86.4755 36.3303
61.6211 -34.1247 27.9743
20.3921 -51.7977 28.703
-20.5065 -71.8201 30.6538
49.9212 -27.0385 22.1366
16.5715 -41.8399 22.9484
-16.5498 -58.2252 24.5939
36.1058 -19.4109 16.1097
12.3897 -30.2604 16.826
-11.1951 -41.9455 17.9931
21.3374 -12.0946 10.0395
8.24413 -18.1932 10.4746
-4.78137 -24.6454 11.1155
7.12706 -5.8412 4.11208
4.52003 -6.92252 4.10895
1.97733 -8.247 4.27794
0.000675678 -0.00497961 0.00269032
-206.707 -197.364 116.571
-181.414 -207.676 112.338
-209.161 -190.253 115.336
-222.048 -176.008 115.334
-156.26 -207.618 105.71
-192.933 -179.816 108.766
-225.112 -152.427 110.651
-141.116 -202.5 100.417
-182.783 -168.237 103.557
-224.175 -133.318 106.165
-127.218 -198.218 95.6888
-174.257 -157.591 98.7321
-220.778 -116.107 101.39
-114.926 -191.875 91.0278
-165.165 -146.434 94.0931
-217.132 -99.1529 97.161
-103.617 -185.68 86.4799
-156.525 -136.472 89.5001
-210.781 -86.2553 92.602
-92.5903 -178.69 81.8536
-147.485 -126.907 84.9128
-203.316 -75.432 88.1761
-81.8293 -171.244 77.2815
-138.141 -117.506 80.307
-195.197 -64.6569 83.7108
-72.1327 -163.389 72.5625
-129.298 -108.795 75.6291
-186.322 -53.7018 78.7849
-63.057 -154.749 68.0419
-119.582 -99.4044 70.934
-175.888 -43.2623 73.7361
-55.5016 -147.052 63.839
-110.566 -90.8915 66.2164
-165.825 -34.0108 68.7522
-46.6089 -136.52 58.7576
-100.724 -81.8696 61.5085
-154.819 -24.2798 63.8284
-38.9548 -126.345 53.8754
-91.5544 -73.8945 56.7992
-143.552 -15.7618 58.8433
-32.7606 -118.769 50.0123
-83.1394 -67.2895 52.1619
-132.355 -10.568 53.8895
-27.8499 -113.496 47.5368
-74.0433 -61.038 47.651
-119.823 -8.96723 48.8386
-23.1759 -105.614 44.0869
-65.0135 -55.2267 43.0763
-107.009 -7.77658 43.6732
-19.1332 -96.2469 39.7298
-56.7012 -49.6804 38.2442
-94.5996 -6.57426 38.3481
-15.3537 -84.8915 34.6778
-48.2862 -43.5952 33.1195
-81.5364 -5.31311 32.8615
-11.7059 -70.646 29.0775
-38.9618 -36.3051 27.6731
-66.4664 -4.20468 27.1827
-9.048 -57.4375 23.215
-31.0813 -29.7113 22.0538
-53.2768 -3.5487 21.5231
-6.59901 -41.6155 16.9751
-22.2902 -21.9906 16.1721
-38.058 -3.21715 15.713
-4.72493 -24.7249 10.5789
-13.3927 -13.9192 10.1316
-22.0868 -3.48501 9.8473
-3.54596 -8.64478 4.27873
-5.2286 -6.38599 4.09396
-6.92538 -4.37367 4.05767
-0.000559807 -0.0047636 0.00206089
-245.087 133.515 113.6
-245.77 118.926 111.003
-240.848 136.607 112.699
-236.311 149.485 113.678
-239.929 97.9451 105.453
-228.968 128.853 107.827
-221.035 157.679 110.564
-232.969 81.245 100.431
-216.424 123.497 103.266
-201.556 165.598 106.284
-225.057 68.6685 95.6084
-203.97 119.059 98.64
-182.716 170.347 101.576
-216.368 56.8174 91.0456
-190.363 114.152 94.0574
-164.026 173.279 97.1165
-207.128 47.2932 86.3979
-177.817 109.221 89.4711
-148.545 172.83 92.6586
-197.376 38.1679 81.7634
-165.349 103.833 84.8799
-133.868 170.653 88.196
-187.309 29.2523 77.1958
-152.87 98.0711 80.2652
-118.719 167.758 83.6671
-177.473 21.8412 72.6475
-141.304 92.4927 75.5823
-104.597 163.48 78.8671
-166.601 15.4335 68.1276
-128.846 86.2398 70.8627
-89.253 157.738 73.8138
-155.674 9.84608 63.3535
-117.565 80.2924 66.0782
-76.3849 151.403 68.8892
-143.745 4.56962 58.5843
-105.817 73.6347 61.2799
-65.358 142.896 63.9103
-131.962 0.257484 53.7768
-95.4485 67.3321 56.4621
-56.0113 134.113 58.8303
-121.22 -2.68505 49.2162
-86.3933 61.4859 51.6562
-48.1506 125.336 53.6586
-112.132 -4.58856 45.6287
-77.0846 55.0761 46.9237
-40.3515 114.88 48.3808
-104.283 -5.61903 42.5053
-68.266 48.5926 42.2123
-33.3392 103.388 43.0228
-94.9454 -6.27386 38.4235
-60.2986 42.5109 37.3723
-27.5811 91.9512 37.6155
-83.6366 -6.59507 33.6243
-52.1129 36.2425 32.3151
-22.4463 79.6318 32.1326
-69.5803 -6.33135 28.2832
-42.8239 29.1901 26.9943
-17.535 65.088 26.528
-56.6204 -5.60503 22.624
-34.7911 23.1364 21.5128
-13.9908 52.1287 20.9766
-41.1991 -4.15888 16.5912
-25.6524 16.3242 15.8012
-10.6594 36.9364 15.3263
-24.8797 -1.93611 10.3903
-16.2926 9.37326 9.94438
-7.93257 20.7493 9.64565
-9.43185 0.812951 4.25348
-7.66355 2.95906 4.08061
-6.0098 5.1985 4.03446
-0.00301933 0.00105 0.001863
31.1312 287.922 117.864
18.1909 284.669 115.994
36.5199 283.271 116.271
53.0093 278.682 115.354
0.648754 271.983 110.88
34.6449 266.909 110.564
68.7699 261.722 110.142
-14.3593 258.581 105.666
32.853 252.058 105.469
79.8107 247.381 105.817
-26.3228 243.942 99.8011
30.8613 238.21 100.412
87.0111 234.227 101.542
-37.4278 224.244 92.5553
28.6202 222.9 95.2488
92.6954 219.9 97.1295
-45.1393 207.956 86.5277
26.6508 208.729 90.1595
96.141 206.711 92.7093
-49.415 194.69 81.6704
24.9329 195.051 85.281
97.4114 193.99 88.2695
-51.8858 182.222 77.1252
23.4445 181.789 80.5711
97.3973 181.305 83.7777
-53.1132 170.687 72.629
22.2166 169.675 75.9181
97.0469 168.2 78.8941
-55.3357 158.033 68.2087
20.9334 156.606 71.3401
96.3517 153.848 73.9037
-57.4384 148.181 64.5677
19.7628 144.69 66.8051
95.1134 140.434 68.9069
-58.3437 139.757 61.6298
18.6152 131.961 62.3627
94.4956 125.16 63.8862
-58.0394 130.734 57.9893
17.6826 120.214 57.8341
93.6324 110.581 58.8963
-56.8488 121.366 53.7456
16.8013 109.345 53.1287
91.1317 98.1069 53.7827
-54.5143 110.093 49.1035
15.6441 97.3937 48.2478
86.5668 85.3517 48.5376
-51.0632 98.026 44.116
14.2437 85.3623 43.1665
80.2562 73.2298 43.1861
-46.9415 86.3171 38.8462
12.7338 74.2684 37.9159
72.9933 62.6358 37.7682
-41.8951 74.034 33.3327
10.9968 63.1232 32.5071
64.3156 52.5157 32.2647
-35.2815 60.1586 27.5823
8.86176 50.9295 26.9222
53.2916 41.8782 26.6333
-28.9121 48.2503 21.8372
6.91216 40.7343 21.3211
42.9127 33.3361 21.0594
-20.9608 34.8651 15.9348
4.59347 29.5182 15.59
30.228 24.2362 15.3873
-12.0095 21.2656 9.99444
2.12167 18.3043 9.80104
16.2791 15.3865 9.68611
-3.00484 8.76785 4.1558
-0.238715 8.12259 4.0529
2.54249 7.55423 4.0496
0.000619397 0.000529289 0.000937939
3 0 1 2
3 0 2 3
3 1 4 5
3 1 5 2
3 2 5 3
3 3 5 6
3 4 7 8
3 4 8 5
3 5 8 6
3 6 8 9
3 7 10 11
3 7 11 8
3 8 11 9
3 9 11 12
3 10 13 14
3 10 14 11
3 11 14 12
3 12 14 15
3 13 16 17
3 13 17 14
3 14 17 15
3 15 17 18
3 16 19 20
3 16 20 17
3 17 20 18
3 18 20 21
3 19 22 23
3 19 23 20
3 20 23 21
3 21 23 24
3 22 25 26
3 22 26 23
3 23 26 24
3 24 26 27
3 25 28 29
3 25 29 26
3 26 29 27
3 27 29 30
3 28 31 32
3 28 32 29
3 29 32 30
3 30 32 33
3 31 34 35
3 31 35 32
3 32 35 33
3 33 35 36
3 34 37 38
3 34 38 35
3 35 38 36
3 36 38 39
3 37 40 41
3 37 41 38
3 38 41 39
3 39 41 42
3 40 43 44
3 40 44 41
3 41 44 42
3 42 44 45
3 43 46 47
3 43 47 44
3 44 47 45
3 45 47 48
3 46 49 50
3 46 50 47
3 47 50 48
3 48 50 51
3 49 52 53
3 49 53 50
3 50 53 51
3 51 53 54
3 52 55 56
3 52 56 53
3 53 56 54
3 54 56 57
3 55 58 59
3 55 59 56
3 56 59 57
3 57 59 60
3 58 61 62
3 58 62 59
3 59 62 60
3 60 62 63
3 61 64 65
3 61 65 62
3 62 65 63
3 63 65 66
3 64 67 68
3 64 68 65
3 65 68 66
3 66 68 69
3 70 68 67
3 70 69 68
3 71 72 73
3 71 73 74
3 72 75 76
3 72 76 73
3 73 76 74
3 74 76 77
3 75 78 79
3 75 79 76
3 76 79 77
3 77 79 80
3 78 81 82
3 78 82 79
3 79 82 80
3 80 82 83
3 81 84 85
3 81 85 82
3 82 85 83
3 83 85 86
3 84 87 88
3 84 88 85
3 85 88 86
3 86 88 89
3 87 90 91
3 87 91 88
3 88 91 89
3 89 91 92
3 90 93 94
3 90 94 91
3 91 94 92
3 92 94 95
3 93 96 97
3 93 97 94
3 94 97 95
3 95 97 98
3 96 99 100
3 96 100 97
3 97 100 98
3 98 100 101
3 99 102 103
3 99 103 100
3 100 103 101
3 101 103 104
3 102 105 106
3 102 106 103
3 103 106 104
3 104 106 107
3 105 108 109
3 105 109 106
3 106 109 107
3 107 109 110
3 108 111 112
3 108 112 109
3 109 112 110
3 110 112 113
3 111 114 115
3 111 115 112
3 112 115 113
3 113 115 116
3 114 117 118
3 114 118 115
3 115 118 116
3 116 118 119
3 117 120 121
3 117 121 118
3 118 121 119
3 119 121 122
3 120 123 124
3 120 124 121
3 121 124 122
3 122 124 125
3 123 126 127
3 123 127 124
3 124 127 125
3 125 127 128
3 126 129 130
3 126 130 127
3 127 130 128
3 128 130 131
3 129 132 133
3 129 133 130
3 130 133 131
3 131 133 134
3 132 135 136
3 132 136 133
3 133 136 134
3 134 136 137
3 135 138 139
3 135 139 136
3 136 139 137
3 137 139 140
3 141 139 138
3 141 140 139
3 142 143 144
3 142 144 145
3 143 146 147
3 143 147 144
3 144 147 145
3 145 147 148
3 146 149 150
3 146 150 147
3 147 150 148
3 148 150 151
3 149 152 153
3 149 153 150
3 150 153 151
3 151 153 154
3 152 155 156
3 152 156 153
3 153 156 154
3 154 156 157
3 155 158 159
3 155 159 156
3 156 159 157
3 157 159 160
3 158 161 162
3 158 162 159
3 159 162 160
3 160 162 163
3 161 164 165
3 161 165 162
3 162 165 163
3 163 165 166
3 164 167 168
3 164 168 165
3 165 168 166
3 166 168 169
3 167 170 171
3 167 171 168
3 168 171 169
3 169 171 172
3 170 173 174
3 170 174 171
3 171 174 172
3 172 174 175
3 173 176 177
3 173 177 174
3 174 177 175
3 175 177 178
3 176 179 180
3 176 180 177
3 177 180 178
3 178 180 181
3 179 182 183
3 179 183 180
3 180 183 181
3 181 183 184
3 182 185 186
3 182 186 183
3 183 186 184
3 184 186 187
3 185 188 189
3 185 189 186
3 186 189 187
3 187 189 190
3 188 191 192
3 188 192 189
3 189 192 190
3 190 192 193
3 191 194 195
3 191 195 192
3 192 195 193
3 193 195 196
3 194 197 198
3 194 198 195
3 195 198 196
3 196 198 199
3 197 200 201
3 197 201 198
3 198 201 199
3 199 201 202
3 200 203 204
3 200 204 201
3 201 204 202
3 202 204 205
3 203 206 207
3 203 207 204
3 204 207 205
3 205 207 208
3 206 209 210
3 206 210 207
3 207 210 208
3 208 210 211
3 212 210 209
3 212 211 210
3 213 214 215
3 213 215 216
3 214 217 218
3 214 218 215
3 215 218 216
3 216 218 219
3 217 220 221
3 217 221 218
3 218 221 219
3 219 221 222
3 220 223 224
3 220 224 221
3 221 224 222
3 222 224 225
3 223 226 227
3 223 227 224
3 224 227 225
3 225 227 228
3 226 229 230
3 226 230 227
3 227 230 228
3 228 230 231
3 229 232 233
3 229 233 230
3 230 233 231
3 231 233 234
3 232 235 236
3 232 236 233
3 233 236 234
3 234 236 237
3 235 238 239
3 235 239 236
3 236 239 237
3 237 239 240
3 238 241 242
3 238 242 239
3 239 242 240
3 240 242 243
3 241 244 245
3 241 245 242
3 242 245 243
3 243 245 246
3 244 247 248
3 244 248 245
3 245 248 246
3 246 248 249
3 247 250 251
3 247 251 248
3 248 251 249
3 249 251 252
3 250 253 254
3 250 254 251
3 251 254 252
3 252 254 255
3 253 256 257
3 253 257 254
3 254 257 255
3 255 257 258
3 256 259 260
3 256 260 257
3 257 260 258
3 258 260 261
3 259 262 263
3 259 263 260
3 260 263 261
3 261 263 264
3 262 265 266
3 262 266 263
3 263 266 264
3 264 266 267
3 265 268 269
3 265 269 266
3 266 269 267
3 267 269 270
3 268 271 272
3 268 272 269
3 269 272 270
3 270 272 273
3 271 274 275
3 271 275 272
3 272 275 273
3 273 275 276
3 274 277 278
3 274 278 275
3 275 278 276
3 276 278 279
3 277 280 281
3 277 281 278
3 278 281 279
3 279 281 282
3 283 281 280
3 283 282 281
3 284 285 286
3 284 286 287
3 285 288 289
3 285 289 286
3 286 289 287
3 287 289 290
3 288 291 292
3 288 292 289
3 289 292 290
3 290 292 293
3 291 294 295
3 291 295 292
3 292 295 293
3 293 295 296
3 294 297 298
3 294 298 295
3 295 298 296
3 296 298 299
3 297 300 301
3 297 301 298
3 298 301 299
3 299 301 302
3 300 303 304
3 300 304 301
3 301 304 302
3 302 304 305
3 303 306 307
3 303 307 304
3 304 307 305
3 305 307 308
3 306 309 310
3 306 310 307
3 307 310 308
3 308 310 311
3 309 312 313
3 309 313 310
3 310 313 311
3 311 313 314
3 312 315 316
3 312 316 313
3 313 316 314
3 314 316 317
3 315 318 319
3 315 319 316
3 316 319 317
3 317 319 320
3 318 321 322
3 318 322 319
3 319 322 320
3 320 322 323
3 321 324 325
3 321 325 322
3 322 325 323
3 323 325 326
3 324 327 328
3 324 328 325
3 325 328 326
3 326 328 329
3 327 330 331
3 327 331 328
3 328 331 329
3 329 331 332
3 330 333 334
3 330 334 331
3 331 334 332
3 332 334 335
3 333 336 337
3 333 337 334
3 334 337 335
3 335 337 338
3 336 339 340
3 336 340 337
3 337 340 338
3 338 340 341
3 339 342 343
3 339 343 340
3 340 343 341
3 341 343 344
3 342 345 346
3 342 346 343
3 343 346 344
3 344 346 347
3 345 348 349
3 345 349 346
3 346 349 347
3 347 349 350
3 348 351 352
3 348 352 349
3 349 352 350
3 350 352 353
3 354 352 351
3 354 353 352
